<?xml version="1.0" encoding="UTF-8" standalone="no"?>
<!-- Created with Inkscape (http://www.inkscape.org/) -->

<svg
   width="16"
   height="16"
   viewBox="0 0 4.2333332 4.2333333"
   version="1.1"
   id="svg1"
   xml:space="preserve"
   inkscape:version="1.4.3 (0d15f75042, 2025-12-25)"
   sodipodi:docname="skycut-cut.svg"
   xmlns:inkscape="http://www.inkscape.org/namespaces/inkscape"
   xmlns:sodipodi="http://sodipodi.sourceforge.net/DTD/sodipodi-0.dtd"
   xmlns="http://www.w3.org/2000/svg"
   xmlns:svg="http://www.w3.org/2000/svg"><sodipodi:namedview
     id="namedview1"
     pagecolor="#ffffff"
     bordercolor="#000000"
     borderopacity="0.25"
     inkscape:showpageshadow="2"
     inkscape:pageopacity="0.0"
     inkscape:pagecheckerboard="0"
     inkscape:deskcolor="#d1d1d1"
     inkscape:document-units="mm"
     inkscape:zoom="31.889483"
     inkscape:cx="7.3848797"
     inkscape:cy="8.5137785"
     inkscape:window-width="1920"
     inkscape:window-height="1020"
     inkscape:window-x="0"
     inkscape:window-y="0"
     inkscape:window-maximized="1"
     inkscape:current-layer="layer1" /><defs
     id="defs1" /><g
     inkscape:label="Layer 1"
     inkscape:groupmode="layer"
     id="layer1"><path
       style="fill:#000000;stroke-width:1"
       d="m 0.42905807,4.1804853 c -0.0310275,-0.019244 -0.0321644,-0.047711 -0.004274,-0.1069625 0.0113822,-0.024193 0.0207005,-0.047473 0.0207005,-0.051749 0,-0.00423 0.002104,-0.00913 0.004671,-0.010726 0.005982,-0.0037 0.0252386,-0.066703 0.0356795,-0.1167564 0.007147,-0.034291 0.008311,-0.1610919 0.009966,-1.0893555 0.001062,-0.5777976 5.9015e-4,-1.055783 -0.001062,-1.0621859 L 0.49184107,1.731103 H 0.3734562 c -0.10304824,0 -0.12264356,-0.00132 -0.15127182,-0.010185 C 0.14086622,1.695786 0.07723807,1.6277199 0.05490406,1.5419773 0.04799561,1.515482 0.04699013,1.4316264 0.04699013,0.89188748 c 0,-0.42951574 0.0017469,-0.62808426 0.0056779,-0.64709196 0.0197397,-0.0953562 0.09282442,-0.17078485 0.18699567,-0.19298743 0.0283038,-0.0066162 0.26788564,-0.0076758 1.8775677,-0.0076758 2.010901,-8.206e-5 1.871028,-0.002117 1.9288922,0.02820324 0.058712,0.03077072 0.099736,0.09131956 0.1263618,0.18648919 l 0.011582,0.0413982 0.00166,0.65402961 c 0.00146,0.57428117 7.081e-4,0.65547357 -0.00612,0.66586677 -0.010574,0.016146 -0.060922,0.054222 -0.098641,0.074604 -0.059721,0.03228 -0.084527,0.036408 -0.2187259,0.036408 H 3.7418131 l 0.00148,1.0751241 0.00148,1.0751241 0.011269,0.041398 c 0.014911,0.054805 0.02771,0.090658 0.04803,0.1345536 0.027652,0.059741 0.031027,0.072182 0.025242,0.093119 -0.00338,0.01218 -0.010839,0.022155 -0.021658,0.028745 -0.01558,0.00952 -0.027515,0.010055 -0.2136762,0.010055 -0.1310104,1.31e-5 -0.2026973,-0.00185 -0.2136301,-0.00569 -0.018873,-0.00661 -0.031664,-0.027502 -0.031664,-0.051801 0,-0.00913 0.011542,-0.041491 0.025647,-0.071838 0.027403,-0.058974 0.046386,-0.118424 0.057834,-0.1811252 0.00583,-0.032028 0.00708,-0.2229456 0.00708,-1.0919416 V 1.733729 L 3.3603288,1.732269 3.2814078,1.730809 V 1.5834633 1.4361078 h 0.074784 c 0.083508,0 0.1152387,-0.00503 0.1606822,-0.025688 C 3.549909,1.3954248 3.597036,1.3564088 3.609771,1.3334988 3.647257,1.2660678 3.657716,1.2203157 3.648718,1.1631177 3.634407,1.0722077 3.573572,0.99926732 3.4883982,0.9709 L 3.4547592,0.9596439 2.1066494,0.9611049 0.75854053,0.9625659 0.72490173,0.9791492 c -0.065223,0.0321472 -0.11302719,0.087773 -0.1320879,0.1536921 -0.0180589,0.062454 2.3609e-4,0.1628321 0.0367846,0.2023179 0.006882,0.00741 0.0125066,0.015644 0.0125066,0.018278 0,0.00807 0.0529005,0.047327 0.080213,0.059464 0.0406697,0.018065 0.075055,0.023187 0.1555074,0.023187 h 0.074784 V 1.5835791 1.7310696 H 0.8748923 0.79717189 l 0.001629,1.0751242 0.001629,1.0751227 0.0111126,0.041398 c 0.0147434,0.054924 0.0218943,0.074419 0.0534721,0.14575 0.025245,0.057029 0.0263446,0.061316 0.0206267,0.080401 -0.004012,0.013394 -0.0115946,0.023545 -0.0225769,0.030241 -0.015654,0.00952 -0.0273099,0.010055 -0.21836475,0.00992 -0.17885162,-1.019e-4 -0.20340429,-0.00106 -0.21566706,-0.00872 z M 1.0504289,0.57454845 c 0.037087,-0.0218506 0.039062,-0.0283753 0.041941,-0.13878991 0.00294,-0.11266724 7.08e-4,-0.13810832 -0.014,-0.15780291 -0.025031,-0.0335764 -0.010574,-0.0322398 -0.34573419,-0.0322 -0.33914325,4.102e-5 -0.32244208,-0.001721 -0.34794116,0.036144 -0.011011,0.0163316 -0.0117132,0.0228564 -0.0124401,0.11616114 -4.7207e-4,0.0543683 -2.3611e-4,0.10579843 4.7195e-4,0.11429505 0.001721,0.0209373 0.0148428,0.045276 0.022008,0.0408557 0.003217,-0.001985 0.004315,-0.001228 0.002488,0.001721 -0.004684,0.007544 0.0138886,0.0227108 0.0337975,0.0275282 0.009371,0.00225 0.14860716,0.003705 0.30942271,0.003309 C 1.0227175,0.58494388 1.0334438,0.58456572 1.050407,0.57452032 Z m 2.3305486,-0.008735 c 0.029403,-0.008866 0.067514,-0.045104 0.081496,-0.0775952 0.00942,-0.0219034 0.011191,-0.0336427 0.00925,-0.0609989 -0.00281,-0.0393733 -0.012311,-0.0602312 -0.040025,-0.0879448 -0.029964,-0.0299633 -0.052963,-0.0390292 -0.098513,-0.0388307 -0.041174,2.3557e-4 -0.076479,0.0131023 -0.087542,0.0321339 -0.00292,0.005028 -0.00537,0.007015 -0.00545,0.0045 -2.36e-4,-0.00794 -0.020585,0.0209638 -0.031184,0.0443231 -0.013986,0.0308104 -0.013877,0.0817112 2.362e-4,0.11086735 0.014018,0.0289576 0.045809,0.0594636 0.073296,0.0703426 0.026235,0.0103232 0.069739,0.0117782 0.098443,0.003177 z m 0.4726671,-0.006221 c 0.042079,-0.0196006 0.074191,-0.0655649 0.078749,-0.11274658 0.0075,-0.0777144 -0.059047,-0.1492149 -0.1388993,-0.1492149 -0.098015,0 -0.1650322,0.10324404 -0.1251241,0.19276774 0.01209,0.0271047 0.046525,0.0622693 0.057094,0.0582857 0.0037,-0.001456 0.00527,-2.3557e-4 0.00352,0.002647 -0.00561,0.009 0.029819,0.02013 0.064785,0.0202889 0.024732,1.0322e-4 0.040585,-0.003045 0.059881,-0.0120441 z M 1.2730269,3.2894484 C 1.2167647,3.2713697 1.1746757,3.2331611 1.1472401,3.1752591 l -0.016056,-0.033881 -0.00136,-0.9742093 -0.00136,-0.9742095 h 0.9876568 c 0.5432048,0 0.9886154,9.438e-4 0.9898013,0.00212 0.00118,0.00118 9.443e-4,0.4407442 -4.718e-4,0.9767968 l -0.00258,0.9746422 -0.012728,0.028468 c -0.00701,0.015657 -0.015157,0.030969 -0.018114,0.03404 -0.00295,0.00305 -0.012428,0.01354 -0.021062,0.023294 -0.018256,0.02062 -0.048119,0.041808 -0.077465,0.05499 -0.019608,0.00888 -0.06434,0.00939 -0.8461261,0.010315 -0.7817548,9.436e-4 -0.8269571,5.902e-4 -0.8543613,-0.0082 z"
       id="path1"
       sodipodi:nodetypes="csssssscsssssscsscscsscccsssssssssscccccssssscccsssssscccccccsssscccssscsscsssssssssscsssssssssssccscscccssccssssscc" /></g></svg>
